<svg xmlns="http://www.w3.org/2000/svg" version="1.1" xmlns:xlink="http://www.w3.org/1999/xlink" xmlns:svgjs="http://svgjs.dev/svgjs" width="100%" height="100%" viewBox="0 0 1000 600"><rect width="1000" height="600" x="0" y="0" fill="#072c50"/><g><rect width="333.3333333333333" height="333.3333333333333" rx="13.333333333333334" ry="13.333333333333334" y="196.08644073597253" fill="#b88746" transform="matrix(0.7189518432095132,0,0,0.7189518432095131,-5.251347135557104,39.19797462215318)" x="199.8533020019531"/><path d="M197.31426356229466 437.7531031899028L197.31426356229466 437.7531031899028Q191.4809308470835 437.7531031899028 186.32468139345934 435.2270617909051Q181.1684319398352 432.70102039190743 181.1684319398352 426.32081273464524L181.1684319398352 426.32081273464524Q181.1684319398352 421.4510215840002 184.26738994479112 416.84164707242707Q187.36634794974705 412.25831422476125 191.68926415834105 408.2218563191463Q195.98613870302782 404.18539841353146 199.73613830566356 401.555190358905L199.73613830566356 401.555190358905Q208.92884566490258 394.9926910542925 221.48092766816944 391.0603998043064Q234.0590513353435 387.12810855432025 245.30905014325074 387.12810855432025L245.30905014325074 387.12810855432025Q247.00175829721826 387.12810855432025 247.00175829721826 387.70102516027856L247.00175829721826 387.70102516027856Q247.00175829721826 388.43019174968 245.49134179060107 388.43019174968L245.49134179060107 388.43019174968Q234.60592627739456 388.43019174968 223.4600941251161 393.11769125297457Q212.3142619728376 397.80519075626927 203.66842955564965 404.18539841353146L203.66842955564965 404.18539841353146Q200.6736382063225 406.2426898621997 196.92363860368675 409.9145644731139Q193.17363900105101 413.56039742012086 190.3611392990742 417.96143862043635Q187.5486395970974 422.3885214846592 187.5486395970974 426.86768767669633L187.5486395970974 426.86768767669633Q187.5486395970974 431.76352049124847 190.46530595470298 433.6385202925664Q193.35593064840137 435.5135200938842 197.496555209645 435.5135200938842L197.496555209645 435.5135200938842Q202.5486380076404 435.5135200938842 208.27780406722277 433.6385202925664Q213.98092846289796 431.76352049124847 217.00176147613232 430.070812337281L217.00176147613232 430.070812337281Q225.23092727080518 425.74789612868705 233.12155143468456 418.716646873745Q240.98613393465675 411.68539761880294 248.12154984522755 403.2478985128726Q255.23092409189113 394.81039940694217 261.3246734461742 386.00831700631096Q267.4184228004573 377.18019294177265 271.92363065640166 369.3156104418005L271.92363065640166 369.3156104418005Q275.6736302590374 362.9354027845383 279.5277965173019 353.846862080928Q283.3559211116592 344.7583213773178 286.0902958219144 335.2010307233781Q288.79862886826254 325.61769840553126 288.79862886826254 318.1176992002598L288.79862886826254 318.1176992002598Q288.79862886826254 317.5708242582087 288.79862886826254 316.9979076522505Q288.79862886826254 316.4510327101994 288.6163372209121 315.51353280954055L288.6163372209121 315.51353280954055Q285.2309209129771 315.12290785093256 280.75175472093997 314.83644954795346Q276.2465468649956 314.5760329088816 273.2517555156685 314.5760329088816L273.2517555156685 314.5760329088816Q264.9965480570884 314.5760329088816 256.9236322458587 315.4093661539118Q248.87675809853613 316.24269939894185 242.31425879392359 318.4041575032389Q235.751759489311 320.5656156075358 231.79342657541775 324.60207351315074Q227.86113532543163 328.6385314187656 227.86113532543163 334.99269741212055L227.86113532543163 334.99269741212055Q227.86113532543163 340.6176968160742 231.32467662508827 346.06040457267744Q234.81425958865208 351.5031123292808 239.7621757310187 355.8260285378747Q244.7361335372925 360.12290308256155 249.2413413932368 362.57081948983756L249.2413413932368 362.57081948983756Q249.99654964654542 362.753111137188 249.99654964654542 363.3260277431462L249.99654964654542 363.3260277431462Q249.99654964654542 363.69061103784685 248.87675809853613 363.69061103784685L248.87675809853613 363.69061103784685Q247.73092488661965 363.69061103784685 247.1840499445686 363.3260277431462L247.1840499445686 363.3260277431462Q241.559050540615 359.7583197878608 237.236134332021 356.3729034799258Q232.9392597873342 353.01352883589794 229.7361351267495 349.05519592200466L229.7361351267495 349.05519592200466Q226.55905213007202 344.94061302466815 224.29342737014625 339.4197802763434Q222.05384427412767 333.87290586411126 222.05384427412767 328.43019810750803L222.05384427412767 328.43019810750803Q222.05384427412767 323.560406956863 224.29342737014625 319.62811570687694Q226.55905213007202 315.6958244568909 232.00175988667527 313.6385330082226L232.00175988667527 313.6385330082226Q236.68925938996998 311.94582485425514 243.79863363663355 311.1906166009465Q250.93404954720435 310.4354083476379 258.6163403998262 310.4354083476379L258.6163403998262 310.4354083476379Q266.8715478584063 310.4354083476379 274.8402970140072 311.0083249535961Q282.8090461696081 311.5551998956472 288.0434206149539 312.4926997963061L288.0434206149539 312.4926997963061Q287.3142540255525 310.8260333062458 286.55904577224396 309.8885334055868Q285.8038375189353 308.9510335049279 285.0486292656267 308.19582525161934L285.0486292656267 308.19582525161934Q285.621545871585 308.013533604269 286.55904577224396 308.013533604269L286.55904577224396 308.013533604269Q289.1892538268704 308.013533604269 291.53300357851776 309.78436674995805Q293.876753330165 311.5551998956472 294.9965448781743 313.4301996969651L294.9965448781743 313.4301996969651Q301.3767525354366 314.1854079502737 305.85591872747364 315.044782859211Q310.361126583418 315.8781161042412 311.68925144268485 316.4510327101994L311.68925144268485 316.4510327101994Q312.6267513433438 316.81561600490016 312.6267513433438 317.38853261085836L312.6267513433438 317.38853261085836Q312.6267513433438 318.50832415886765 309.99654328871736 318.1176992002598L309.99654328871736 318.1176992002598L296.48091972088434 316.4510327101994Q297.23612797419287 320.38332396018546 297.23612797419287 323.19582366216235L297.23612797419287 323.19582366216235Q297.23612797419287 330.69582286743383 294.8923782225455 339.6020719236937Q292.5486284708983 348.50832097995357 288.9027955238912 357.02394507760556Q285.2309209129771 365.5656108391648 281.29862966299095 372.1281101437773L281.29862966299095 372.1281101437773Q276.42883851234603 380.2010259550071 269.50175591303275 389.1854000029885Q262.54863164981225 398.19581571487714 254.2152991995106 406.8156064681579Q245.85592508530178 415.4353972214387 236.5850927343412 422.46664647638073Q227.3142603833806 429.4978957313228 217.366344770833 433.6385202925664Q207.41842915828542 437.7531031899028 197.31426356229466 437.7531031899028ZM376.5590362355018 420.878104978042L376.5590362355018 420.878104978042Q371.8715367322071 420.878104978042 367.54862052361307 416.94581372805584Q363.25174597892635 413.0135224780698 359.68403802364094 406.45102317345726Q356.1163300683555 399.88852386884474 353.4861220137291 392.1801913523157Q350.8559139591026 384.4979004996938 349.44966410811423 376.815609647072Q348.04341425712585 369.1333187944502 348.04341425712585 363.11769443188865L348.04341425712585 363.11769443188865L348.04341425712585 362.9354027845383Q348.04341425712585 361.99790288387936 348.61633086308404 361.52915293354994Q349.18924746904224 361.0604029832204 349.37153911639257 360.8781113358701L349.37153911639257 360.8781113358701Q350.49133066440186 359.9406114352111 354.2413302670376 359.1854031819026L354.2413302670376 359.1854031819026Q364.91841246898673 357.31040338058466 375.5173696792141 354.6801953259582Q386.11632688944144 352.076028935239 395.3090342486805 346.34686287565654Q404.5017416079195 340.6176968160742 410.85590760127457 329.9406146141252L410.85590760127457 329.9406146141252Q413.12153236120025 326.00832336413913 413.12153236120025 322.2583237615034L413.12153236120025 322.2583237615034Q413.12153236120025 317.5708242582087 409.0850744555854 314.65415790060314Q405.0486165499706 311.7635332069048 398.77257554833716 310.1489500446588Q392.49653454670363 308.56040854632005 385.54341028348324 308.013533604269L385.54341028348324 308.013533604269Q384.8142436940818 308.7427001936704 383.59028549044376 309.8885334055868Q382.3663272868057 311.0083249535961 381.6111190334972 311.94582485425514L381.6111190334972 311.94582485425514Q376.74132788285215 316.81561600490016 369.9965369308892 324.31561521017164Q363.25174597892635 331.8156144154431 356.1163300683555 340.721863471703Q348.9809141577847 349.62811252796286 342.80903981178005 359.00311153455226Q336.6111238018682 368.37811054114155 332.7829992075109 377.3885262530302Q328.9288329492464 386.3729003010117 328.9288329492464 394.05519115363353L328.9288329492464 394.05519115363353Q328.9288329492464 397.4406074615686 330.0486244972557 400.35727381917417Q331.16841604526496 403.2478985128726 335.3090406065086 403.6385234714805L335.3090406065086 403.6385234714805Q334.55383235320005 404.00310676618113 333.7986240998914 404.00310676618113L333.7986240998914 404.00310676618113Q331.16841604526496 404.00310676618113 328.9288329492464 401.6593570145338Q326.6892498532278 399.31560726288643 325.36112499396097 396.03435761058023Q324.05904179860136 392.7531079582739 324.05904179860136 390.12289990364746L324.05904179860136 390.12289990364746Q324.05904179860136 383.9510255576428 327.2361247952789 375.6958180990627Q330.43924945586355 367.4406106404826 335.67362390120934 358.16977828952207Q340.93404001046224 348.87290427465433 347.5746643067963 339.6020719236937Q354.2413302670376 330.30519790882596 361.3767461776084 322.07603211415307Q368.48612042427203 313.82082465557295 375.04861972888455 307.44061699831076L375.04861972888455 307.44061699831076Q366.24653732825345 307.62290864566114 354.5277885700168 308.2739502433409Q342.80903981178005 308.9510335049279 330.43924945586355 310.721866650617Q318.0434174360398 312.4926997963061 307.26216857846214 315.7739494486124Q296.48091972088434 319.0551991009186 289.55383712157106 324.49790685752197L289.55383712157106 324.49790685752197Q287.8611289676036 325.8260317167888 286.6371707639655 328.0656148128074Q285.4392542242347 330.30519790882596 285.4392542242347 332.57082266875165L285.4392542242347 332.57082266875165Q285.4392542242347 334.8104057647702 286.7413374195943 336.3208222713874L286.7413374195943 336.3208222713874Q287.10592071429494 336.68540556608815 287.10592071429494 337.076030524696L287.10592071429494 337.076030524696Q287.10592071429494 337.622905466747 286.4548791166152 337.80519711409744Q285.8038375189353 338.013530425355 285.4392542242347 337.80519711409744L285.4392542242347 337.80519711409744Q283.56425442291675 336.5031139187377 281.4027963186197 334.0551975114617Q279.2413382143228 331.6333227680927 277.73092170770565 329.107281369095Q276.2465468649956 326.5551983061902 276.2465468649956 325.07082346348017L276.2465468649956 325.07082346348017Q276.2465468649956 320.38332396018546 283.56425442291675 316.4510327101994Q290.8559203169307 312.4926997963061 302.49654408344577 309.49790844697895Q314.11112618605375 306.50311709765185 327.05383314792846 304.9927005910347L327.05383314792846 304.9927005910347Q334.1892490584993 304.0552006903757 343.82466470416057 303.40415909269586Q353.4861220137291 302.7531174950161 363.616329273627 302.7531174950161L363.616329273627 302.7531174950161Q371.48091177359925 302.7531174950161 378.7986193315204 303.3260341009743L378.7986193315204 303.3260341009743L380.4913274854879 301.81561759435715Q380.1267441907871 301.2427009883989 380.1267441907871 299.9406177930392L380.1267441907871 299.9406177930392Q380.1267441907871 297.49270138576316 383.486118834815 294.497910036436L383.486118834815 294.497910036436Q384.42361873547395 293.3781184884267 385.7517435947408 292.44061858776774Q387.0538267901004 291.50311868710884 388.1736183381097 290.56561878644993L388.1736183381097 290.56561878644993Q389.5017431973765 289.8104105331413 390.23090978677794 289.1593689354615Q390.98611804008647 288.5083273377817 392.3142428993533 287.7531190844731L392.3142428993533 287.7531190844731Q394.91840929007265 287.9354107318235 397.07986739436956 288.97707728811116Q399.2413254986666 289.9927021804916 399.2413254986666 292.8052018824685L399.2413254986666 292.8052018824685Q399.2413254986666 293.56041013577703 398.8767422039658 294.6802016837863L398.8767422039658 294.6802016837863Q398.3038255980076 296.00832654305316 396.4288257966898 298.1697846473502Q394.5538259953719 300.30520108774 390.80382639273614 303.8729090430254L390.80382639273614 303.8729090430254Q395.8559091907315 304.6281172963339 401.1163252999844 306.3989504420231Q406.3767414092374 308.19582525161934 410.387157650945 311.6593665512759Q414.42361555655987 315.12290785093256 415.7517404158267 320.93019890223655L415.7517404158267 320.93019890223655Q417.0538236111863 322.07603211415307 417.7048652088662 324.60207351315074Q418.35590680654605 327.1281149121484 418.35590680654605 329.75832296677487L418.35590680654605 329.75832296677487Q418.35590680654605 335.3833223707284 414.3454905648383 340.0708218740231Q410.3090326592235 344.7583213773178 404.2152833049404 348.1176960213457Q398.1215339506573 351.5031123292808 391.7413262933951 353.5604037779489Q385.3611186361329 355.6176952266172 380.4913274854879 356.00832018522505L380.4913274854879 356.00832018522505Q377.49653613616067 356.19061183257537 371.4027867818776 357.59686168356376Q365.3090374275945 359.00311153455226 359.68403802364094 360.5135280411694L359.68403802364094 360.5135280411694Q359.68403802364094 366.138527445123 360.6215379242999 373.06561004443626Q361.55903782495875 379.99269264374954 362.96528767594725 386.7635252596196Q364.37153752693564 393.50831621158255 366.0642456809031 398.5603990095779L366.0642456809031 398.5603990095779Q368.48612042427203 405.30518996154075 372.34028668253654 410.27914776781455Q376.16841127689383 415.25310557408835 381.0642440914461 415.25310557408835L381.0642440914461 415.25310557408835Q383.6684104821653 415.25310557408835 386.40278519242065 413.7426890674712Q389.11111823876865 412.25831422476125 392.10590958809576 408.87289791682616L392.10590958809576 408.87289791682616Q394.5538259953719 406.2426898621997 397.001742402648 403.2478985128726Q399.4236171460169 400.2531071635454 401.29861694733484 397.62289910891894L401.29861694733484 397.62289910891894Q403.17361674865265 394.9926910542925 404.3975749522907 393.22185790860334Q405.6215331559288 391.4510247629143 406.16840809797986 390.69581650960566L406.16840809797986 390.69581650960566Q406.74132470393806 389.7583166089467 407.31424130989626 389.7583166089467L407.31424130989626 389.7583166089467Q407.678824604597 389.7583166089467 407.678824604597 390.3051915509978Q407.678824604597 390.878108156956 407.31424130989626 391.6333164102646L407.31424130989626 391.6333164102646Q405.43924150857845 394.2635244648911 401.9496585450146 399.4197739185152Q398.48611724535806 404.57602337213933 395.67361754338117 407.9353980161672L395.67361754338117 407.9353980161672Q391.37674299869445 413.56039742012086 386.7673684871213 417.23227203103505Q382.1840356394554 420.878104978042 376.5590362355018 420.878104978042ZM459.0590274934881 418.4301885707659L459.0590274934881 418.4301885707659Q453.04340313092666 418.4301885707659 446.22048718724216 417.4145636783854Q439.3715295796504 416.37289712209764 432.6267386276876 413.37810577277054Q425.8559060118175 410.3833144234433 420.04861496051353 404.57602337213933L420.04861496051353 404.57602337213933Q414.6059072039103 400.61769045824605 412.26215745226295 396.9718575112391Q409.9184077006156 393.3260245642321 409.9184077006156 388.24790010232954L409.9184077006156 388.24790010232954Q409.9184077006156 383.7426922463853 411.24653255988244 378.5083178010395L411.24653255988244 378.5083178010395Q413.8767406145089 367.07602734578194 421.5590314671307 355.5395702348956Q429.2413223197525 344.0031131240093 440.8559044223605 333.3260309220603Q452.4965281888756 322.62290705620404 466.92360999346033 314.1854079502737L466.92360999346033 314.1854079502737Q476.1163173526993 308.7427001936704 487.3663161606065 303.9770756986541Q498.61631496851373 299.1854095397307 509.86631377642107 299.1854095397307L509.86631377642107 299.1854095397307Q515.3090215330243 299.1854095397307 520.4652709866484 300.69582604634786Q525.6215204402727 302.1802008890578 530.3090199435673 305.7479088443432L530.3090199435673 305.7479088443432Q532.7308946869362 307.62290864566114 534.8142277995116 309.6802000943293Q536.8715192481798 311.7635332069048 538.1736024435395 314.1854079502737L538.1736024435395 314.1854079502737Q540.0486022448573 317.93540755290945 540.0486022448573 320.74790725488623L540.0486022448573 320.74790725488623Q540.0486022448573 323.9510319154709 537.9913107961892 326.00832336413913L537.9913107961892 326.00832336413913Q536.6892276008294 327.49269820684907 534.1371445379247 329.367698008167Q531.611103138927 331.2426978094848 530.3090199435673 332.1801977101438L530.3090199435673 332.1801977101438Q528.7986034369501 333.11769761080274 528.6163117895998 333.11769761080274L528.6163117895998 333.11769761080274Q528.4340201422494 333.11769761080274 528.4340201422494 332.9354059634524L528.4340201422494 332.9354059634524Q528.4340201422494 332.3885310214013 529.5538116902586 330.87811451478416L529.5538116902586 330.87811451478416Q532.7308946869362 327.1281149121484 534.059019546203 323.8468652598421Q535.3611027415626 320.5656156075358 535.3611027415626 318.1176992002598L535.3611027415626 318.1176992002598Q535.3611027415626 312.4926997963061 530.0225616405882 309.6802000943293Q524.6840205396136 306.8677003923525 517.0017296869918 306.8677003923525L517.0017296869918 306.8677003923525Q514.7361049270661 306.8677003923525 512.4965218310475 307.1541586953316Q510.2308970711217 307.44061699831076 507.8090223277528 307.80520029301147L507.8090223277528 307.80520029301147Q497.1058984618966 309.8885334055868 485.38714970365993 315.305199498283Q473.6684009454232 320.74790725488623 462.41840213751595 328.8208230661159Q451.16840332960874 336.8676972134385 441.8975709786482 346.7114461703573Q432.6267386276876 356.55519512727614 426.61111426512605 367.7270689434618Q420.62153156647173 378.87290109574025 419.50174001846244 390.51352486225534L419.50174001846244 390.51352486225534Q419.11111505985457 395.20102436555004 420.6996565581933 399.21144060725766Q422.31423972043933 403.2478985128726 424.73611446380824 405.6958149201486L424.73611446380824 405.6958149201486Q429.0590306724022 409.8103978174851 435.15278002668526 411.5031059714526Q441.24652938096835 413.1958141254201 448.35590362763196 413.1958141254201L448.35590362763196 413.1958141254201Q457.54861098687104 413.1958141254201 467.21006829643943 411.0343560211232Q476.87152560600794 408.87289791682616 485.3090247119384 405.6958149201486Q493.7465238178688 402.492690259564 499.18923157447205 399.49789891023676L499.18923157447205 399.49789891023676Q509.6840221290706 393.50831621158255 517.6527712846716 384.6020671553226Q525.6215204402727 375.6958180990627 526.5590203409315 366.138527445123L526.5590203409315 366.138527445123Q526.9236036356323 361.99790288387936 524.866312186964 359.57602814051046Q522.8090207382958 357.12811173323433 519.5277710859896 356.00832018522505Q516.2465214336833 354.88852863721576 512.8611051257482 354.4979036786079Q509.5017304817203 354.13332038390723 507.41839736914494 354.13332038390723L507.41839736914494 354.13332038390723Q498.2517316738131 354.13332038390723 486.8975662102771 357.2322783888631Q475.5434007467411 360.3051947299119 464.50173525009143 364.9926942332066L464.50173525009143 364.9926942332066Q467.67881824676897 365.5656108391648 468.9809014421286 365.5656108391648L468.9809014421286 365.5656108391648Q470.49131794874575 365.5656108391648 470.49131794874575 366.3208190924734L470.49131794874575 366.3208190924734Q470.49131794874575 366.8676940345244 468.6163181474278 366.8676940345244L468.6163181474278 366.8676940345244Q468.0434015414696 366.8676940345244 466.4548600431309 367.07602734578194Q464.8663185447921 367.25831899313226 463.1736103908246 367.25831899313226L463.1736103908246 367.25831899313226Q460.934027294806 367.25831899313226 459.0590274934881 366.50311073982374Q457.1840276921703 365.7479024865151 457.1840276921703 363.69061103784685L457.1840276921703 363.69061103784685Q457.1840276921703 360.12290308256155 462.3402771457944 357.31040338058466Q467.49652659941853 354.4979036786079 475.934025705349 352.44061222993963Q484.3715248112794 350.3833207812715 494.39756541554857 349.34165422498376Q504.4236060198177 348.32602933260324 514.189229985015 348.32602933260324L514.189229985015 348.32602933260324Q524.1111039336554 348.32602933260324 532.3663113922355 349.44582088061253Q540.6215188508155 350.5656124286218 544.9183933955023 353.01352883589794L544.9183933955023 353.01352883589794Q547.0017265080778 354.13332038390723 548.9548513011173 355.9041535295963Q550.9340177580639 357.70102833919253 551.8715176587228 359.7583197878608L551.8715176587228 359.7583197878608L551.8715176587228 359.9406114352111Q551.8715176587228 360.69581968851975 550.1788095047553 360.69581968851975L550.1788095047553 360.69581968851975Q546.0642266074188 356.3729034799258 541.8454770544536 355.2531119319165Q537.6267275014884 354.13332038390723 533.121519645544 354.13332038390723L533.121519645544 354.13332038390723Q531.4288114915765 354.13332038390723 529.736103337609 354.13332038390723Q528.0433951836416 354.13332038390723 526.3767286935812 354.31561203125756L526.3767286935812 354.31561203125756Q531.2465198442262 357.31040338058466 533.3038112928944 361.0604029832204Q535.3611027415626 364.81040258585614 535.3611027415626 369.1333187944502L535.3611027415626 369.1333187944502Q535.3611027415626 374.75831819840374 532.0798530892564 380.6697759053365Q528.7986034369501 386.55519194836205 523.3558956803467 391.4510247629143L523.3558956803467 391.4510247629143Q507.8090223277528 405.6958149201486 490.7517324685416 412.0760225774109Q473.6684009454232 418.4301885707659 459.0590274934881 418.4301885707659Z " fill="#072c50" transform="matrix(0.7189518432095132,0,0,0.7189518432095131,-5.251347135557104,39.19797462215318)"/><path d="M703.4635723237193 437.75309909716947L703.4635723237193 437.75309909716947Q701.3270740976099 437.75309909716947 699.1015551120793 435.8243159763762Q696.8463625400749 433.895532855583 696.8463625400749 429.2071061927317L696.8463625400749 429.2071061927317Q696.8463625400749 427.2783230719386 699.4279645632904 422.14479261198113Q701.9798930000322 417.0112621520239 706.371583798146 410.06764291716826Q710.7336010097861 403.1240236823126 715.8671314697434 395.23084968029735Q721.0006619297008 387.337675678282 726.1341923896581 380.0676469922152L726.1341923896581 380.0676469922152Q727.410156608029 378.34657897673816 729.1015510370323 376.00236564531264Q730.8226190525094 373.658152313887 734.0273663916735 369.5928709669843L734.0273663916735 369.5928709669843Q721.0006619297008 372.382188095516 709.9917613479425 375.79465053999644Q698.9828607661842 379.20711298447674 688.5080847409534 382.41186032364084L688.5080847409534 382.41186032364084Q678.0629823021962 385.61660766280494 668.0036364875978 388.0795153401255Q657.9739642594731 390.5424230174461 648.1520071366645 391.61067213050086L648.1520071366645 391.61067213050086Q641.7425124583363 392.23381744644934 638.9531953298045 387.337675678282Q636.1638782012727 382.41186032364084 636.1638782012727 376.6551845477349L636.1638782012727 376.6551845477349Q636.1638782012727 373.8658674192032 640.1401387887541 370.6611200800391Q644.0867257897618 367.4563727408749 650.169811016879 364.459340507027Q656.252896243996 361.4623082731791 662.7810852682193 359.2367892876485Q669.2796007059686 356.981596715644 674.4131311659261 356.12106270790554L674.4131311659261 356.12106270790554Q675.0659500683483 355.91334760258934 675.6890953842969 355.91334760258934Q676.3419142867193 355.91334760258934 676.9947331891416 355.91334760258934L676.9947331891416 355.91334760258934Q680.1994805283057 355.91334760258934 680.1994805283057 356.7738816103278L680.1994805283057 356.7738816103278Q680.1994805283057 357.8421307233826 675.4813802789807 358.70266473112105L675.4813802789807 358.70266473112105Q672.0689178345004 359.11809494175344 666.608977923332 361.2545931678629Q661.1787115986372 363.3910913939723 656.0451811386798 365.52758962008176L656.0451811386798 365.52758962008176Q647.0837580236098 369.1774407563519 643.3448861279184 372.0557786443049Q639.6060142322268 374.93411653225786 639.6060142322268 377.2783298636835L639.6060142322268 377.2783298636835Q639.6060142322268 379.62254319510913 643.4339068873395 381.0172017593749Q647.291473128926 382.41186032364084 652.8404337995157 382.41186032364084L652.8404337995157 382.41186032364084Q656.6980000411021 382.41186032364084 660.7336078015311 381.75904142121857L660.7336078015311 381.75904142121857Q666.5199571639107 380.9281809999538 672.7217367369227 379.62254319510913Q678.893842723461 378.34657897673816 684.2350882887346 377.0706147583673Q689.5763338540081 375.79465053999644 692.3656509825399 375.14183163757406L692.3656509825399 375.14183163757406Q698.9828607661842 373.4504372085708 711.4754406716296 370.0083011776167Q723.9976941635487 366.5958387331364 738.092647738576 364.2516254017108L738.092647738576 364.2516254017108Q744.2944273115882 356.12106270790554 751.327067305865 347.04094524694057Q758.3893808866155 337.9608277859755 764.887896324365 329.1180990168005Q771.4160853485882 320.2456966611516 776.3419007032294 312.56023776445244L776.3419007032294 312.56023776445244Q779.5466480423935 307.63442240981135 781.6831462685029 303.89555051411986Q783.8196444946122 300.1566786184284 783.8196444946122 297.36736148989667L783.8196444946122 297.36736148989667Q783.8196444946122 294.40000284252244 780.7039179148694 292.8866499323616Q777.6178649216002 291.40297060867454 769.9324060249011 291.40297060867454L769.9324060249011 291.40297060867454Q762.8700924441505 291.40297060867454 751.44576165176 293.0053442782566Q740.0214308593693 294.60771794783864 726.6683169461854 297.36736148989667Q713.3152030330016 300.1566786184284 700.051109879239 304.22195996533105L700.051109879239 304.22195996533105Q678.6861276181448 310.42373953834306 660.852302147426 318.8510380968858Q643.0184766767071 327.2783366554284 632.33598554616 336.4771484622884L632.33598554616 336.4771484622884Q628.9235231016797 339.26646559082013 628.9235231016797 342.8866431406166L628.9235231016797 342.8866431406166Q628.9235231016797 345.02314136672607 630.2885080794719 346.7442093822031Q631.6831666437378 348.43560381120636 634.8879139829019 349.50385292426114L634.8879139829019 349.50385292426114L634.8879139829019 349.71156802957734Q634.8879139829019 349.9489567213672 634.4724837722695 350.48308127789454Q634.0273799751634 351.017205834422 632.7514157567924 350.779817142632L632.7514157567924 350.779817142632Q631.0600213277892 350.3643869319996 627.0837607403078 348.02017360057397Q623.1371737393 345.67596026914845 619.8434056407146 342.47121292998423Q616.5199639556556 339.26646559082013 616.5199639556556 336.6848635676046L616.5199639556556 336.6848635676046Q616.5199639556556 333.4801162284405 623.9977077470386 328.58397446027305Q631.4754515384216 323.6581591056319 644.413135240973 317.99050408914724Q657.3211453570507 312.32284907266256 673.5525971581875 306.7738884020728Q689.813722545798 301.22492773148304 707.1134234599896 296.7442161739481L707.1134234599896 296.7442161739481Q723.5525903664426 292.4712197217292 738.6267722951035 290.1270063903037Q753.6712806372906 287.75311947240425 765.4220208808923 287.75311947240425L765.4220208808923 287.75311947240425Q778.8938291399712 287.75311947240425 787.0243918337765 291.4919913680958Q795.1252809411079 295.2308632637872 795.1252809411079 304.01424486001486L795.1252809411079 304.01424486001486Q795.1252809411079 307.84213751512755 791.7128184966276 313.8362019828234Q788.3003560521473 319.80059286404554 782.8404161409788 326.7442120989011Q777.410149816284 333.6878313337567 771.208370243272 340.42373546329605Q765.00659067026 347.1596395928355 759.6653451049864 352.91631536874144Q754.324099539713 358.70266473112105 751.1193522005487 362.11512717560134L751.1193522005487 362.11512717560134Q753.9086693290806 362.11512717560134 759.9917545561975 362.6492517321288Q766.0748397833147 363.1833762886561 772.4843344616429 364.6670556123432Q778.8938291399712 366.180408522504 783.2855199380849 369.058746410457Q787.6475371497249 371.93708429840996 787.0243918337765 376.41779585594503L787.0243918337765 376.41779585594503Q789.7840353758344 378.99939787916054 789.7840353758344 382.41186032364084L789.7840353758344 382.41186032364084Q789.7840353758344 384.7560736550665 786.7870031419865 387.01126622707085Q783.8196444946122 389.23678521260143 779.7543631477097 391.61067213050086Q775.689081800807 393.9548854619264 772.0689042510105 396.299098793352L772.0689042510105 396.299098793352Q771.8315155592206 396.5068138986682 771.5347796944832 395.9726893421409Q771.208370243272 395.43856478561355 771.4160853485882 395.23084968029735L771.4160853485882 395.23084968029735Q774.4131175824361 392.8866363488717 778.56741968876 389.02907010728524Q782.7513953815576 385.20117745217254 782.7513953815576 378.13886387142196L782.7513953815576 378.13886387142196Q782.7513953815576 373.4504372085708 779.0125234858662 371.0765502906715Q775.2736515901746 368.73233695924586 769.6950173331112 367.8718029515073Q764.1460566625215 367.0409425302426 758.5970959919317 367.0409425302426L758.5970959919317 367.0409425302426Q750.9116370952325 367.0409425302426 747.0540708536462 367.6640878461911L747.0540708536462 367.6640878461911Q736.5792948284152 379.20711298447674 726.8760320515016 392.3525117923444Q717.1430956881143 405.49791060021204 709.8730670020476 419.5928641752394L709.8730670020476 419.5928641752394Q710.3181707991537 419.5928641752394 710.6445802503648 420.33470383708294Q710.9413161151023 421.07654349892647 711.3864199122085 420.6611132882941L711.3864199122085 420.6611132882941Q712.4546690252631 419.5928641752394 713.4042237924228 418.8510245133959Q714.3834521460564 418.07951126507857 714.7988823566888 417.87179615976237L714.7988823566888 417.87179615976237Q715.2143125673211 417.66408105444617 715.3330069132161 417.66408105444617Q715.451701259111 417.66408105444617 715.451701259111 417.66408105444617L715.451701259111 417.66408105444617Q715.8671314697434 417.66408105444617 715.8671314697434 418.07951126507857L715.8671314697434 418.07951126507857Q715.8671314697434 418.94004527281703 714.7988823566888 420.6611132882941Q713.730633243634 422.3525077172973 713.3152030330016 423.658145522142L713.3152030330016 423.658145522142Q712.2469539199469 426.2100739588838 710.4071915585749 429.53351564394296Q708.5971027836766 432.8272837425282 707.1134234599896 436.2397461870085L707.1134234599896 436.2397461870085Q706.0451743469349 437.75309909716947 703.4635723237193 437.75309909716947ZM790.4368542782568 430.6907855164189L790.4368542782568 430.6907855164189Q785.9561427207217 430.6907855164189 783.7009501487173 426.32876830477875Q781.4457575767129 421.93707750666505 781.4457575767129 418.73233016750083L781.4457575767129 418.73233016750083Q781.4457575767129 411.25458637611797 785.9561427207217 403.1240236823126Q790.4368542782568 395.02313457498116 797.3804735131123 387.7531058889144Q804.3240927479679 380.4830772028476 812.0095516446671 376.00236564531264Q819.6950105413662 371.52165408777756 826.3122203250107 371.52165408777756L826.3122203250107 371.52165408777756Q828.2410034458039 371.52165408777756 830.7039111231245 373.12402775735967Q833.1668188004451 374.72640142694166 835.3033170265544 378.13886387142196L835.3033170265544 378.13886387142196Q835.7187472371868 378.55429408205435 836.3715661396092 379.94895264632027Q836.9947114555578 381.3436112105862 836.3715661396092 382.41186032364084L836.3715661396092 382.41186032364084L836.163851034293 381.99643011300844Q835.7187472371868 380.9281809999538 834.2350679134997 380.15666775163646Q832.7217150033389 379.41482808979293 829.7543563559648 379.41482808979293L829.7543563559648 379.41482808979293Q824.8285410013236 379.41482808979293 818.7454557742064 382.82729053427323Q812.6623705470895 386.2694265652273 806.5496117334985 392.02610234113325Q800.4665265063816 397.7827781170391 795.5703847382141 404.63737659247346Q790.644569383573 411.46230148143417 788.3003560521473 418.52461506218464L788.3003560521473 418.52461506218464Q786.7870031419865 422.14479261198113 786.7870031419865 424.72639463519675L786.7870031419865 424.72639463519675Q786.7870031419865 427.93114197436086 789.1608900598859 427.93114197436086L789.1608900598859 427.93114197436086Q790.8522844888892 427.93114197436086 793.1964978203148 426.2100739588838L793.1964978203148 426.2100739588838Q797.7068829643235 422.7976115144035 802.6030247324909 417.45636594913Q807.528840087132 412.11512038385644 812.128245990562 406.3287710214768Q816.6979783075183 400.5720952455709 820.2291350978936 395.64627989092975Q823.7602918882689 390.7501381227623 825.243971211956 388.40592479133664L825.243971211956 388.40592479133664Q825.8967901143783 387.5453907835982 826.846344881538 387.42669643770324Q827.8255732351715 387.337675678282 829.3092525588586 387.337675678282L829.3092525588586 387.337675678282Q833.5822490110775 387.337675678282 834.7691924700271 388.7026606560741Q835.926462342503 390.09731922034 834.8582132294483 391.61067213050086L834.8582132294483 391.61067213050086Q832.0985696873903 395.64627989092975 828.9828431076475 400.9875254562033Q825.8967901143783 406.3287710214768 823.6415975423739 411.46230148143417Q821.4160785568432 416.5958319413915 821.4160785568432 420.6611132882941L821.4160785568432 420.6611132882941Q821.4160785568432 423.8658606274582 823.968006993585 423.8658606274582L823.968006993585 423.8658606274582Q826.3122203250107 423.8658606274582 829.1015374535424 421.07654349892647L829.1015374535424 421.07654349892647Q831.6534658902842 418.73233016750083 835.1846226806595 414.2516186099659Q838.7157794710348 409.7709070524308 842.24693626141 404.84509169778966Q845.7780930517854 399.9192763431485 848.1223063832109 396.299098793352L848.1223063832109 396.299098793352Q848.9828403909495 395.23084968029735 849.5169649474768 395.3495440261923Q850.0510895040042 395.43856478561355 849.3982706015818 396.7145290039844L849.3982706015818 396.7145290039844Q845.9858081571015 402.05577456925795 842.3359570208313 407.7234295857426Q838.7157794710348 413.3910846022273 834.6504981241321 418.31689995686844L834.6504981241321 418.31689995686844Q826.965039227433 428.13885707967705 823.1074729858466 428.13885707967705L823.1074729858466 428.13885707967705Q819.6950105413662 428.13885707967705 816.6979783075183 426.0023588535676Q813.7306196601442 423.8658606274582 813.7306196601442 419.8005792805556L813.7306196601442 419.8005792805556Q813.7306196601442 415.52758282833673 815.5407084350423 409.85992781185206Q817.3507972099407 404.1922727953674 818.8344765336277 400.9875254562033L818.8344765336277 400.9875254562033Q814.3537649760926 407.8421239316377 808.5970892001867 414.66704882059827Q802.8107398378071 421.52164729603265 797.7959037237447 426.0913796129889Q792.7810676096824 430.6907855164189 790.4368542782568 430.6907855164189ZM857.5288332953871 431.34360441884115L857.5288332953871 431.34360441884115Q850.2588046093204 431.34360441884115 847.3804667213674 426.6255041695162Q844.4724552469406 421.93707750666505 844.4724552469406 415.52758282833673L844.4724552469406 415.52758282833673Q844.4724552469406 410.6017674736956 845.7780930517854 405.49791060021204Q847.0540572701561 400.3643801402547 849.1905554962657 396.299098793352L849.1905554962657 396.299098793352Q847.4694874807886 395.43856478561355 847.9145912778947 394.578030777875L847.9145912778947 394.578030777875Q849.6059857068981 392.6789212435555 851.7424839330074 389.3554795584965Q853.878982159117 386.03203787343733 856.2231954905425 383.0646792260631L856.2231954905425 383.0646792260631Q858.804797513758 379.859931886899 860.9412957398674 377.4860449689997Q863.0777939659769 375.14183163757406 864.5614732896639 374.72640142694166L864.5614732896639 374.72640142694166Q865.2142921920863 374.51868632162547 865.7484167486136 374.39999197573053Q866.282541305141 374.2812976298356 866.6979715157734 374.2812976298356L866.6979715157734 374.2812976298356Q867.766220628828 374.2812976298356 868.4190395312504 374.8154221863629Q869.042184847199 375.34954674289025 869.6950037496213 376.21008075062883L869.6950037496213 376.21008075062883Q870.763252862676 377.2783298636835 870.9709679679921 378.020169525527Q871.1786830733083 378.79168277384434 872.6920359834692 379.41482808979293L872.6920359834692 379.41482808979293Q869.9027188549375 382.41186032364084 867.1430753128795 385.49791331691Q864.3537581843477 388.61363989665284 862.2172599582383 391.61067213050086L862.2172599582383 391.61067213050086Q858.804797513758 396.5068138986682 855.2736407233828 403.5691274794188Q851.7424839330074 410.6017674736956 851.7424839330074 418.73233016750083L851.7424839330074 418.73233016750083Q851.7424839330074 423.4207568303521 853.6712670538006 425.7946437482514Q855.6000501745939 428.13885707967705 858.5970824084418 428.13885707967705L858.5970824084418 428.13885707967705Q860.9412957398674 428.13885707967705 863.4932241766093 426.74419851541114Q866.0748261998248 425.34953995114535 868.6267546365666 422.5898964090873L868.6267546365666 422.5898964090873Q873.7602850965238 417.2486508438138 878.359690999954 410.51274671427433Q882.9294233169101 403.776842584735 886.3715593478641 396.83322334987935Q889.7840217923444 389.8896041150238 891.2677011160316 384.1329283391179L891.2677011160316 384.1329283391179Q892.7810540261925 379.20711298447674 893.3151785827198 374.2812976298356Q893.8493031392472 369.3851558616681 893.8493031392472 366.8035538384526L893.8493031392472 366.8035538384526Q896.1935164706728 365.9726934171878 898.122299591466 365.9726934171878L898.122299591466 365.9726934171878Q900.8819431335239 365.9726934171878 901.9501922465787 367.6640878461911Q903.0184413596334 369.3851558616681 903.0184413596334 371.93708429840996L903.0184413596334 371.93708429840996Q903.0184413596334 375.79465053999644 901.5347620359463 379.41482808979293L901.5347620359463 379.41482808979293Q900.2587978175754 382.61957542895703 897.7958901402549 385.49791331691Q895.3329824629343 388.40592479133664 892.7810540261925 390.7501381227623L892.7810540261925 390.7501381227623Q887.4398084609188 399.7115612378323 881.6534590985393 408.9993938041136Q875.8967833226334 418.31689995686844 868.4190395312504 426.0023588535676L868.4190395312504 426.0023588535676Q865.6297224027187 428.76200239562564 862.7513845147657 430.0676402004703Q859.8730466268128 431.34360441884115 857.5288332953871 431.34360441884115ZM937.8552318798063 366.5958387331364L937.8552318798063 366.5958387331364Q934.6504845406423 365.31987451476556 932.3952919686378 362.4415366268126Q930.1697729831072 359.5631987388596 930.7929182990558 356.12106270790554L930.7929182990558 356.12106270790554Q931.238022096162 354.2219531735861 931.9798617580054 353.68782861705876Q932.7217014198491 353.1537040605313 936.3418789696454 352.91631536874144L936.3418789696454 352.91631536874144L947.6771890026149 351.017205834422Q949.605972123408 350.5721020373158 949.605972123408 351.017205834422L949.605972123408 351.017205834422Q949.605972123408 351.84806625568666 948.0926192132473 352.29317005279285L948.0926192132473 352.29317005279285Q944.6801567687669 353.1537040605313 942.1282283320252 354.8450984895347Q939.5466263088097 356.5661665050117 937.8552318798063 359.5631987388596L937.8552318798063 359.5631987388596Q937.4101280827002 360.1863440548082 937.4101280827002 361.4623082731791L937.4101280827002 361.4623082731791Q937.4101280827002 362.7679460780237 937.9442526392276 363.92521595049965Q938.478377195755 365.11215940944936 939.1311960981773 365.9726934171878L939.1311960981773 365.9726934171878Q939.7840150005995 366.8035538384526 939.2498904440722 366.8035538384526Q938.7157658875449 366.8035538384526 937.8552318798063 366.5958387331364ZM912.840398482442 431.34360441884115L912.840398482442 431.34360441884115Q905.600043382849 431.34360441884115 902.6920319084222 426.74419851541114Q899.8136940204693 422.14479261198113 899.8136940204693 415.73529793365293L899.8136940204693 415.73529793365293Q899.8136940204693 410.8391561654856 901.2083525847352 405.70562570552823Q902.603011149001 400.5720952455709 904.7395093751104 396.5068138986682L904.7395093751104 396.5068138986682Q902.8107262543172 395.64627989092975 903.4635451567395 395.02313457498116L903.4635451567395 395.02313457498116Q904.9472244804266 392.8866363488717 907.202417052431 389.6818890097076Q909.4279360379617 386.4771416705435 911.7721493693873 383.2723943313793L911.7721493693873 383.2723943313793Q914.5614664979189 379.62254319510913 916.8166590699234 377.2783298636835Q919.0421780554541 374.93411653225786 921.6237800786696 374.93411653225786L921.6237800786696 374.93411653225786Q923.3151745076729 374.93411653225786 924.7098330719386 376.00236564531264Q926.1044916362046 377.0706147583673 927.5881709598916 378.13886387142196L927.5881709598916 378.13886387142196Q922.6920291917243 383.2723943313793 917.7662138370831 390.7501381227623Q912.840398482442 398.22788191414526 909.7543454891728 406.44746536737176Q906.6682924959036 414.66704882059827 906.6682924959036 422.5898964090873L906.6682924959036 422.5898964090873Q906.6682924959036 426.0023588535676 908.2706661654857 427.3970174178335Q909.8730398350677 428.76200239562564 912.2172531664934 428.76200239562564L912.2172531664934 428.76200239562564Q917.1133949346608 428.76200239562564 920.9709611762472 425.34953995114535L920.9709611762472 425.34953995114535Q925.0362425231499 421.72936240134885 930.4665088478446 414.7857431664932Q935.9264487590132 407.8421239316377 940.8522641136542 400.1566650349385L940.8522641136542 400.1566650349385Q942.1282283320252 398.43559701946145 942.8700679938688 398.22788191414526Q943.6119076557123 398.02016680882906 942.9887623397638 399.0884159218837L942.9887623397638 399.0884159218837Q941.2676943242867 402.50087836636413 937.7365375339114 407.7234295857426Q934.2053807435361 412.975654391595 930.3774880884234 418.07951126507857Q926.519921846837 423.2130417250359 923.7602783047789 426.0023588535676L923.7602783047789 426.0023588535676Q920.9709611762472 428.76200239562564 918.0926232882944 430.0676402004703Q915.2142854003413 431.34360441884115 912.840398482442 431.34360441884115ZM950.4665061311467 431.55131952415735L950.4665061311467 431.55131952415735Q943.8196227610284 431.55131952415735 939.2498904440722 426.6255041695162Q934.6504845406423 421.72936240134885 934.6504845406423 413.3910846022273L934.6504845406423 413.3910846022273Q934.6504845406423 407.1893050292153 937.4101280827002 400.1566650349385L937.4101280827002 400.1566650349385Q940.6148754218643 392.6789212435555 945.8671002277167 385.9430171140161Q951.0896514470952 379.20711298447674 957.2914310201073 374.8154221863629Q963.4932105931193 370.4534049747229 969.4576014743415 370.4534049747229L969.4576014743415 370.4534049747229Q973.5228828212441 370.4534049747229 977.3804490628306 372.6789239602535Q981.2083417179433 374.93411653225786 980.1400926048885 379.859931886899L980.1400926048885 379.859931886899Q979.9323774995723 380.4830772028476 979.398252943045 380.6907923081638Q978.8641283865177 380.9281809999538 978.8641283865177 380.6907923081638L978.8641283865177 380.6907923081638Q977.3804490628306 376.41779585594503 972.4546337081895 376.41779585594503L972.4546337081895 376.41779585594503Q969.6949901661314 376.41779585594503 966.6979579322834 378.34657897673816L966.6979579322834 378.34657897673816Q960.7038934645875 382.82729053427323 955.4813422452091 388.9400493478641Q950.2291174393567 395.02313457498116 946.6089398895601 401.22491414799316Q942.9887623397638 407.3970201345315 941.6831245349191 412.53055059448883L941.6831245349191 412.53055059448883Q941.2676943242867 414.66704882059827 940.9412848730756 416.26942249018026Q940.6148754218643 417.87179615976237 940.6148754218643 419.5928641752394L940.6148754218643 419.5928641752394Q940.6148754218643 424.93410974051295 943.4041925503961 427.15962872604354Q946.1935096789279 429.4148212980479 950.0214023340405 429.4148212980479L950.0214023340405 429.4148212980479Q956.2231819070525 429.4148212980479 961.5644274723261 425.55725505646154L961.5644274723261 425.55725505646154Q966.2528541351774 421.93707750666505 970.3181354820799 417.2486508438138Q974.3834168289826 412.53055059448883 978.2409830705691 406.7738748185829L978.2409830705691 406.7738748185829Q978.8641283865177 405.70562570552823 979.51694728894 405.70562570552823L979.51694728894 405.70562570552823Q979.7246623942563 405.70562570552823 979.7246623942563 406.1210559161606L979.7246623942563 406.1210559161606Q979.7246623942563 406.7738748185829 978.8641283865177 408.25755414227007L978.8641283865177 408.25755414227007Q975.6593810473535 412.975654391595 971.5940997004509 418.4059207162897Q967.5584919400219 423.8658606274582 962.6326765853809 427.2783230719386L962.6326765853809 427.2783230719386Q959.635644351533 429.4148212980479 956.5495913582638 430.4830704111027Q953.4338647785208 431.55131952415735 950.4665061311467 431.55131952415735ZM992.959081961545 431.55131952415735L992.959081961545 431.55131952415735Q986.7869759750067 431.55131952415735 982.3952851768929 426.8628928613062Q978.0035943787791 422.14479261198113 978.0035943787791 414.0439035046497L978.0035943787791 414.0439035046497Q978.0035943787791 411.0468712708018 978.7751076270963 407.5157144804264Q979.51694728894 403.9845576900512 981.000626612627 400.1566650349385L981.000626612627 400.1566650349385Q984.2053739517912 392.6789212435555 989.8730289682758 385.82432276812114Q995.5406839847606 378.99939787916054 1002.1578937684051 374.51868632162547Q1008.7751035520494 370.0083011776167 1014.7691680197454 370.0083011776167L1014.7691680197454 370.0083011776167Q1015.3923133356939 370.0083011776167 1016.2528473434324 370.54242573414405Q1017.1133813511708 371.0765502906715 1017.5288115618033 371.52165408777756L1017.5288115618033 371.52165408777756L1018.597060674858 372.5899032008322Q1021.1786626980736 375.14183163757406 1023.6415703753942 375.58693543468024Q1026.074804466241 376.00236564531264 1027.5881573764018 378.13886387142196L1027.5881573764018 378.13886387142196Q1030.1400858131437 382.20414521832464 1030.1400858131437 387.9608209942306L1030.1400858131437 387.9608209942306Q1030.1400858131437 395.8836685827196 1025.3329648043973 405.1715011490009Q1020.5258437956512 414.45933371528207 1012.4249546883198 421.93707750666505L1012.4249546883198 421.93707750666505Q1008.3596733414171 425.55725505646154 1003.4338579867759 428.55428729030945Q998.5377162186085 431.55131952415735 992.959081961545 431.55131952415735ZM994.4724348717059 429.2071061927317L994.4724348717059 429.2071061927317Q999.6059653316631 429.2071061927317 1004.9472108969367 425.6759494023565Q1010.2884564622103 422.14479261198113 1014.8581887791665 416.3881168360753Q1019.4575946825964 410.6017674736956 1022.7810363676556 404.1922727953674Q1026.074804466241 397.7827781170391 1026.9353384739798 392.02610234113325L1026.9353384739798 392.02610234113325Q1027.1430535792956 390.9578532280785 1027.2617479251908 389.77090976912876Q1027.3804422710855 388.61363989665284 1027.3804422710855 387.7531058889144L1027.3804422710855 387.7531058889144Q1027.3804422710855 381.99643011300844 1024.5911251425541 379.3258073303717Q1021.8018080140221 376.6551845477349 1017.9739153589094 376.6551845477349L1017.9739153589094 376.6551845477349Q1013.9086340120068 376.6551845477349 1009.6356375597879 379.20711298447674L1009.6356375597879 379.20711298447674Q1005.5703562128854 381.5513263159024 999.3685766398733 388.9400493478641Q993.1964706533349 396.299098793352 988.2706552986938 404.1922727953674L988.2706552986938 404.1922727953674Q983.7899437411588 411.25458637611797 983.7899437411588 417.87179615976237L983.7899437411588 417.87179615976237Q983.7899437411588 422.5898964090873 986.4605665237956 425.8836645076727Q989.1311893064324 429.2071061927317 994.4724348717059 429.2071061927317ZM1070.1104067932743 431.13588931352496L1070.1104067932743 431.13588931352496Q1064.5317725362106 431.13588931352496 1062.3062535506797 427.8124476284659Q1060.0510609786757 424.48900594340677 1060.0510609786757 420.0082943858718L1060.0510609786757 420.0082943858718Q1060.0510609786757 414.87476392591446 1061.6534346482576 409.65221270653586Q1063.2558083178396 404.42966148715726 1065.3032857845278 400.03797068904356Q1067.3210896647424 395.64627989092975 1068.597053883113 393.3020665595041L1068.597053883113 393.3020665595041Q1072.2469050193836 386.4771416705435 1072.2469050193836 384.3406434444341L1072.2469050193836 384.3406434444341Q1072.2469050193836 381.99643011300844 1070.1104067932743 382.82729053427323L1070.1104067932743 382.82729053427323Q1068.389338777797 383.4801094366955 1065.392306543949 386.4771416705435Q1062.3952743101008 389.4741739043914 1059.1905269709368 393.3020665595041Q1055.9857796317729 397.1596328010906 1053.552545540926 400.3643801402547Q1051.0896378636053 403.5691274794188 1050.4368189611832 404.63737659247346L1050.4368189611832 404.63737659247346Q1044.472428079961 413.1833694969111 1042.0985411620618 418.73233016750083Q1039.7543278306362 424.28129083809057 1038.6860787175815 426.8628928613062L1038.6860787175815 426.8628928613062Q1038.2706485069489 427.93114197436086 1036.3418653861559 427.93114197436086L1036.3418653861559 427.93114197436086Q1034.4130822653624 427.93114197436086 1032.4842991445694 426.32876830477875Q1030.58518961025 424.72639463519675 1030.58518961025 421.52164729603265L1030.58518961025 421.52164729603265Q1030.58518961025 419.8005792805556 1032.4842991445694 415.4088884824418Q1034.4130822653624 411.0468712708018 1037.2023993938942 405.05280680310585L1037.2023993938942 405.05280680310585Q1039.7543278306362 399.2961310271999 1042.3359298538517 393.42076090539905Q1044.8878582905936 387.5453907835982 1046.3715376142804 384.1329283391179L1046.3715376142804 384.1329283391179Q1044.8878582905936 382.82729053427323 1044.8878582905936 382.20414521832464Q1044.8878582905936 381.5513263159024 1045.0955733959095 381.13589610527L1045.0955733959095 381.13589610527Q1045.5406771930157 380.0676469922152 1046.8166414113866 377.60473931489463Q1048.0926056297576 375.14183163757406 1049.3685698481286 372.6789239602535Q1050.644534066499 370.2456898694067 1051.0896378636053 369.5928709669843L1051.0896378636053 369.5928709669843Q1051.7127831795542 369.1774407563519 1054.3834059621909 368.10919164329727Q1057.0540287448275 367.0409425302426 1059.635630768043 367.0409425302426L1059.635630768043 367.0409425302426L1060.4961647757818 367.0409425302426Q1063.0480932125233 367.0409425302426 1063.0480932125233 368.52462185392966L1063.0480932125233 368.52462185392966Q1063.0480932125233 370.0083011776167 1061.5644138888365 372.382188095516L1061.5644138888365 372.382188095516Q1060.911594986414 373.4504372085708 1058.5673816549884 377.8124544202108Q1056.2231683235627 382.20414521832464 1053.226136089715 387.7531058889144Q1050.229103855867 393.3020665595041 1047.7661961785466 398.3169026735665Q1045.3032885012258 403.3614123741026 1044.2350393881711 405.91334081084443L1044.2350393881711 405.91334081084443Q1043.6118940722226 407.8421239316377 1043.7009148316438 409.65221270653586Q1043.8196091775385 411.46230148143417 1044.6801431852773 410.1863372630632L1044.6801431852773 410.1863372630632Q1050.644534066499 401.22491414799316 1055.7780645264565 394.81541946966496Q1060.911594986414 388.40592479133664 1066.0451254463715 382.82729053427323Q1071.1786559063285 377.2783298636835 1077.350761892867 371.31393898246137L1077.350761892867 371.31393898246137Q1079.4872601189763 372.14479940372615 1081.8611470368755 372.14479940372615Q1084.2053603683016 372.14479940372615 1085.8967547973048 373.4504372085708L1085.8967547973048 373.4504372085708Q1086.7572888050431 374.0735825245194 1086.7572888050431 375.58693543468024L1086.7572888050431 375.58693543468024Q1086.7572888050431 378.55429408205435 1083.226132014668 384.4296642038552Q1079.7246488107662 390.3050343256562 1075.4516523585476 397.5750630117229L1075.4516523585476 397.5750630117229Q1072.2469050193836 403.1240236823126 1069.0421576802191 410.3940523683794Q1065.8374103410551 417.66408105444617 1065.8374103410551 423.0053266197197L1065.8374103410551 423.0053266197197Q1065.8374103410551 425.7946437482514 1066.786965108215 427.6047325231497Q1067.7365198753746 429.4148212980479 1069.873018101484 429.4148212980479L1069.873018101484 429.4148212980479Q1071.8018012222774 429.4148212980479 1074.146014553703 427.93114197436086L1074.146014553703 427.93114197436086Q1075.8670825691797 426.8628928613062 1081.6237583450857 420.75013404771533Q1087.4101077074656 414.66704882059827 1094.2350325964262 404.1922727953674L1094.2350325964262 404.1922727953674Q1094.8878514988482 403.5691274794188 1095.0955666041646 403.5691274794188L1095.0955666041646 403.5691274794188Q1095.5109968147972 403.5691274794188 1095.5109968147972 403.9845576900512L1095.5109968147972 403.9845576900512Q1095.5109968147972 404.42966148715726 1094.8878514988482 405.70562570552823L1094.8878514988482 405.70562570552823Q1087.8255379180978 417.66408105444617 1080.8819186832425 424.3999851839856Q1073.9382994483867 431.13588931352496 1070.1104067932743 431.13588931352496ZM1110.2587692922466 428.9993910874155L1110.2587692922466 428.9993910874155Q1108.5673748632435 428.9993910874155 1106.4308766371341 427.15962872604354Q1104.2943784110244 425.34953995114535 1103.8492746139186 422.14479261198113L1103.8492746139186 422.14479261198113Q1103.8492746139186 421.72936240134885 1103.7602538544975 421.6106680554538Q1103.6415595086023 421.52164729603265 1103.6415595086023 421.28425860424267L1103.6415595086023 421.28425860424267Q1103.6415595086023 420.216009491188 1105.5703426293953 419.3851490699232L1105.5703426293953 419.3851490699232Q1108.3299861714536 418.07951126507857 1110.2587692922466 416.92224139260264Q1112.18755241304 415.73529793365293 1114.976869541572 414.0439035046497L1114.976869541572 414.0439035046497Q1115.1845846468877 413.8065148128597 1115.2736054063093 413.92520915875474Q1115.392299752204 414.0439035046497 1115.1845846468877 414.45933371528207L1115.1845846468877 414.45933371528207Q1115.1845846468877 415.31986772302054 1114.7394808497816 416.26942249018026Q1114.3240506391494 417.2486508438138 1113.9086204285168 417.66408105444617L1113.9086204285168 417.66408105444617Q1113.671231736727 418.07951126507857 1112.6029826236722 420.216009491188Q1111.5347335106176 422.3525077172973 1110.792893848774 424.72639463519675Q1110.0510541869303 427.0706079666224 1110.466484397563 428.13885707967705L1110.466484397563 428.13885707967705Q1110.7038730893528 428.34657218499325 1110.585178743458 428.6729816362044Q1110.466484397563 428.9993910874155 1110.2587692922466 428.9993910874155ZM1176.2824991963225 366.5958387331364L1176.2824991963225 366.5958387331364Q1173.077751857158 365.31987451476556 1170.822559285154 362.4415366268126Q1168.5970402996231 359.5631987388596 1169.2201856155716 356.12106270790554L1169.2201856155716 356.12106270790554Q1169.6652894126778 354.2219531735861 1170.4071290745214 353.68782861705876Q1171.148968736365 353.1537040605313 1174.7988198726352 352.91631536874144L1174.7988198726352 352.91631536874144L1186.1044563191308 351.017205834422Q1188.0332394399243 350.5721020373158 1188.0332394399243 351.017205834422L1188.0332394399243 351.017205834422Q1188.0332394399243 351.84806625568666 1186.549560116237 352.29317005279285L1186.549560116237 352.29317005279285Q1183.1074240852831 353.1537040605313 1180.5554956485412 354.8450984895347Q1178.0035672117992 356.5661665050117 1176.2824991963225 359.5631987388596L1176.2824991963225 359.5631987388596Q1175.86706898569 360.1863440548082 1175.86706898569 361.4623082731791L1175.86706898569 361.4623082731791Q1175.86706898569 362.7679460780237 1176.4011935422172 363.92521595049965Q1176.9353180987446 365.11215940944936 1177.558463414693 365.9726934171878L1177.558463414693 365.9726934171878Q1178.2112823171155 366.8035538384526 1177.6771577605882 366.8035538384526Q1177.1430332040609 366.8035538384526 1176.2824991963225 366.5958387331364ZM1151.2973393854318 431.34360441884115L1151.2973393854318 431.34360441884115Q1144.027310699365 431.34360441884115 1141.148972811412 426.74419851541114Q1138.2409613369855 422.14479261198113 1138.2409613369855 415.73529793365293L1138.2409613369855 415.73529793365293Q1138.2409613369855 410.8391561654856 1139.6356199012512 405.70562570552823Q1141.0302784655169 400.5720952455709 1143.1667766916262 396.5068138986682L1143.1667766916262 396.5068138986682Q1141.2379935708332 395.64627989092975 1141.8908124732557 395.02313457498116L1141.8908124732557 395.02313457498116Q1143.3744917969425 392.8866363488717 1145.629684368947 389.6818890097076Q1147.8552033544775 386.4771416705435 1150.229090272377 383.2723943313793L1150.229090272377 383.2723943313793Q1152.988733814435 379.62254319510913 1155.2439263864394 377.2783298636835Q1157.4694453719699 374.93411653225786 1160.0510473951858 374.93411653225786L1160.0510473951858 374.93411653225786Q1161.742441824189 374.93411653225786 1163.1371003884547 376.00236564531264Q1164.5317589527208 377.0706147583673 1166.0154382764076 378.13886387142196L1166.0154382764076 378.13886387142196Q1161.1192965082405 383.2723943313793 1156.1934811535994 390.7501381227623Q1151.2973393854318 398.22788191414526 1148.181612805689 406.44746536737176Q1145.0955598124197 414.66704882059827 1145.0955598124197 422.5898964090873L1145.0955598124197 422.5898964090873Q1145.0955598124197 426.0023588535676 1146.6979334820016 427.3970174178335Q1148.3003071515836 428.76200239562564 1150.6445204830093 428.76200239562564L1150.6445204830093 428.76200239562564Q1155.5703358376504 428.76200239562564 1159.3982284927633 425.34953995114535L1159.3982284927633 425.34953995114535Q1163.4635098396657 421.72936240134885 1168.9234497508346 414.7857431664932Q1174.353716075529 407.8421239316377 1179.2795314301702 400.1566650349385L1179.2795314301702 400.1566650349385Q1180.5554956485412 398.43559701946145 1181.2973353103848 398.22788191414526Q1182.0391749722285 398.02016680882906 1181.4160296562795 399.0884159218837L1181.4160296562795 399.0884159218837Q1179.6949616408028 402.50087836636413 1176.1638048504274 407.7234295857426Q1172.662321646526 412.975654391595 1168.8047554049394 418.07951126507857Q1164.947189163353 423.2130417250359 1162.1875456212952 426.0023588535676L1162.1875456212952 426.0023588535676Q1159.3982284927633 428.76200239562564 1156.5198906048104 430.0676402004703Q1153.6415527168574 431.34360441884115 1151.2973393854318 431.34360441884115ZM1187.1727054321855 431.55131952415735L1187.1727054321855 431.55131952415735Q1180.9709258591733 431.55131952415735 1176.6089086475336 426.8628928613062Q1172.2172178494197 422.14479261198113 1172.2172178494197 414.0439035046497L1172.2172178494197 414.0439035046497Q1172.2172178494197 411.0468712708018 1172.9590575112634 407.5157144804264Q1173.7305707595806 403.9845576900512 1175.2142500832679 400.1566650349385L1175.2142500832679 400.1566650349385Q1178.4189974224319 392.6789212435555 1184.0866524389166 385.82432276812114Q1189.754307455401 378.99939787916054 1196.3715172390457 374.51868632162547Q1202.98872702269 370.0083011776167 1208.9827914903858 370.0083011776167L1208.9827914903858 370.0083011776167Q1209.6059368063347 370.0083011776167 1210.466470814073 370.54242573414405Q1211.3270048218114 371.0765502906715 1211.742435032444 371.52165408777756L1211.742435032444 371.52165408777756L1212.8106841454987 372.5899032008322Q1215.3922861687142 375.14183163757406 1217.825520259561 375.58693543468024Q1220.2884279368814 376.00236564531264 1221.8017808470422 378.13886387142196L1221.8017808470422 378.13886387142196Q1224.3537092837842 382.20414521832464 1224.3537092837842 387.9608209942306L1224.3537092837842 387.9608209942306Q1224.3537092837842 395.8836685827196 1219.5465882750382 405.1715011490009Q1214.7394672662917 414.45933371528207 1206.6089045724866 421.93707750666505L1206.6089045724866 421.93707750666505Q1202.5732968120578 425.55725505646154 1197.6474814574167 428.55428729030945Q1192.7216661027755 431.55131952415735 1187.1727054321855 431.55131952415735ZM1188.6860583423463 429.2071061927317L1188.6860583423463 429.2071061927317Q1193.7899152158302 429.2071061927317 1199.1311607811035 425.6759494023565Q1204.4724063463773 422.14479261198113 1209.071812249807 416.3881168360753Q1213.671218153237 410.6017674736956 1216.9946598382962 404.1922727953674Q1220.2884279368814 397.7827781170391 1221.1489619446202 392.02610234113325L1221.1489619446202 392.02610234113325Q1221.3566770499365 390.9578532280785 1221.4753713958312 389.77090976912876Q1221.5643921552523 388.61363989665284 1221.5643921552523 387.7531058889144L1221.5643921552523 387.7531058889144Q1221.5643921552523 381.99643011300844 1218.8047486131945 379.3258073303717Q1216.0154314846627 376.6551845477349 1212.1875388295502 376.6551845477349L1212.1875388295502 376.6551845477349Q1208.1222574826475 376.6551845477349 1203.8492610304284 379.20711298447674L1203.8492610304284 379.20711298447674Q1199.783979683526 381.5513263159024 1193.582200110514 388.9400493478641Q1187.3804205375018 396.299098793352 1182.4842787693342 404.1922727953674L1182.4842787693342 404.1922727953674Q1178.0035672117992 411.25458637611797 1178.0035672117992 417.87179615976237L1178.0035672117992 417.87179615976237Q1178.0035672117992 422.5898964090873 1180.6741899944363 425.8836645076727Q1183.344812777073 429.2071061927317 1188.6860583423463 429.2071061927317Z " fill="#b88746" transform="matrix(0.7189518432095132,0,0,0.7189518432095131,-5.251347135557104,39.19797462215318)"/></g></svg>